# xmcd
#
# Track frame offsets:
#	150
#	19978
#	34077
#	48188
#	66855
#	89796
#	111457
#	125390
#	147541
#	162846
#	180630
#	199978
#	217012
#	236250
#	255098
#	276464
#
# Disc length: 3979 seconds
#
# Revision: 1
# Processed by: cddbd v1.5.1PL2 Copyright (c) Steve Scherf et al.
# Submitted via: audiograbber 1.83.01
#
DISCID=f10f8910
DTITLE=Various Artist - Karaoke Bay - Pure Funk Vol. 2
DYEAR=1900
DGENRE=Karaoke
TTITLE0=Smokey Robinson and The Mircles - Tear The Roof Off The Sucker
TTITLE1=Dr. John - Right Place, Wrong Time
TTITLE2=Ohio Players - Love Rollercoaster
TTITLE3=Curtis Mayfield - Superfly
TTITLE4=Wild Cherry - Play That Funky Music
TTITLE5=Rufus - Tell Me Something Good
TTITLE6=Sly and The Family Stone - Dance To The Music
TTITLE7=Marvin Gaye - Got To Give It Up
TTITLE8=Isaac Hayes - Theme From Shaft
TTITLE9=Eddie Kendricks - Keep On Truckin
TTITLE10=Stevie Wonder - Superstition
TTITLE11=Spinners - Rubberband Man
TTITLE12=Con Funk Shun - Ffun
TTITLE13=Billy Preston - Will It Go Round In Circles
TTITLE14=O'Jays - For The Love Of Money
TTITLE15=Rick James - Give It To Me Baby
EXTD=
EXTT0=
EXTT1=
EXTT2=
EXTT3=
EXTT4=
EXTT5=
EXTT6=
EXTT7=
EXTT8=
EXTT9=
EXTT10=
EXTT11=
EXTT12=
EXTT13=
EXTT14=
EXTT15=
PLAYORDER=
